# xmcd
#
# Track frame offsets:
#  150
#  24030
#  45165
#  67021
#  88284
#  111403
#  133157
#  157676
#  174751
#  198795
#
# Disc length: 2978 seconds
#
# Revision: 0
# Processed by: cddbd v1.5.1PL2 Copyright (c) Steve Scherf et al.
# Submitted via: Collectorz.com_Music_Collector 6.9
#
DISCID=730ba00a
DTITLE=Ollie Nightengale - Make It Sweet
DYEAR=1997
DGENRE=Blues - Soul - Soul-Blues
TTITLE0=I'll Take A Big Fat Woman
TTITLE1=Make It Sweet
TTITLE2=The Early Bird Gets The Worm
TTITLE3=God Blessed Our Love
TTITLE4=Your Drawers Is On Fire
TTITLE5=Two Wrongs Made A Right
TTITLE6=He Ain't What The Little Bird Left On The Limb
TTITLE7=Don't Let My Baby Ride
TTITLE8=The Booty Scoot
TTITLE9=The Bull S**t Song
EXTD=
EXTT0=
EXTT1=
EXTT2=
EXTT3=
EXTT4=
EXTT5=
EXTT6=
EXTT7=
EXTT8=
EXTT9=
PLAYORDER=
